<svg xmlns="http://www.w3.org/2000/svg" viewBox="0 0 176 160" shape-rendering="crispEdges" role="img" aria-label="Slice of bread mark">
  <rect x="72" y="8" width="32" height="8" fill="#BC8746"/>
  <rect x="48" y="16" width="24" height="8" fill="#BC8746"/>
  <rect x="72" y="16" width="32" height="8" fill="#E0B374"/>
  <rect x="104" y="16" width="24" height="8" fill="#BC8746"/>
  <rect x="40" y="24" width="8" height="8" fill="#BC8746"/>
  <rect x="48" y="24" width="16" height="8" fill="#EFCD95"/>
  <rect x="64" y="24" width="8" height="8" fill="#E0B374"/>
  <rect x="72" y="24" width="32" height="8" fill="#FCF6EA"/>
  <rect x="104" y="24" width="24" height="8" fill="#E0B374"/>
  <rect x="128" y="24" width="8" height="8" fill="#BC8746"/>
  <rect x="32" y="32" width="8" height="8" fill="#BC8746"/>
  <rect x="40" y="32" width="8" height="8" fill="#EFCD95"/>
  <rect x="48" y="32" width="80" height="8" fill="#FCF6EA"/>
  <rect x="128" y="32" width="8" height="8" fill="#E0B374"/>
  <rect x="136" y="32" width="8" height="8" fill="#BC8746"/>
  <rect x="24" y="40" width="8" height="8" fill="#BC8746"/>
  <rect x="32" y="40" width="8" height="8" fill="#E0B374"/>
  <rect x="40" y="40" width="88" height="8" fill="#FCF6EA"/>
  <rect x="128" y="40" width="8" height="8" fill="#EFDFC2"/>
  <rect x="136" y="40" width="8" height="8" fill="#E0B374"/>
  <rect x="144" y="40" width="8" height="8" fill="#BC8746"/>
  <rect x="16" y="48" width="8" height="8" fill="#BC8746"/>
  <rect x="24" y="48" width="8" height="8" fill="#E0B374"/>
  <rect x="32" y="48" width="56" height="8" fill="#FCF6EA"/>
  <rect x="88" y="48" width="8" height="8" fill="#EFDFC2"/>
  <rect x="96" y="48" width="32" height="8" fill="#FCF6EA"/>
  <rect x="128" y="48" width="16" height="8" fill="#EFDFC2"/>
  <rect x="144" y="48" width="8" height="8" fill="#E0B374"/>
  <rect x="152" y="48" width="8" height="8" fill="#BC8746"/>
  <rect x="16" y="56" width="8" height="8" fill="#BC8746"/>
  <rect x="24" y="56" width="8" height="8" fill="#E0B374"/>
  <rect x="32" y="56" width="96" height="8" fill="#FCF6EA"/>
  <rect x="128" y="56" width="16" height="8" fill="#EFDFC2"/>
  <rect x="144" y="56" width="8" height="8" fill="#E0B374"/>
  <rect x="152" y="56" width="8" height="8" fill="#BC8746"/>
  <rect x="16" y="64" width="8" height="8" fill="#BC8746"/>
  <rect x="24" y="64" width="8" height="8" fill="#E0B374"/>
  <rect x="32" y="64" width="24" height="8" fill="#FCF6EA"/>
  <rect x="56" y="64" width="8" height="8" fill="#EFDFC2"/>
  <rect x="64" y="64" width="64" height="8" fill="#FCF6EA"/>
  <rect x="128" y="64" width="16" height="8" fill="#EFDFC2"/>
  <rect x="144" y="64" width="8" height="8" fill="#E0B374"/>
  <rect x="152" y="64" width="8" height="8" fill="#BC8746"/>
  <rect x="16" y="72" width="8" height="8" fill="#BC8746"/>
  <rect x="24" y="72" width="8" height="8" fill="#E0B374"/>
  <rect x="32" y="72" width="72" height="8" fill="#FCF6EA"/>
  <rect x="104" y="72" width="8" height="8" fill="#EFDFC2"/>
  <rect x="112" y="72" width="16" height="8" fill="#FCF6EA"/>
  <rect x="128" y="72" width="16" height="8" fill="#EFDFC2"/>
  <rect x="144" y="72" width="8" height="8" fill="#E0B374"/>
  <rect x="152" y="72" width="8" height="8" fill="#BC8746"/>
  <rect x="16" y="80" width="8" height="8" fill="#BC8746"/>
  <rect x="24" y="80" width="8" height="8" fill="#E0B374"/>
  <rect x="32" y="80" width="96" height="8" fill="#FCF6EA"/>
  <rect x="128" y="80" width="16" height="8" fill="#EFDFC2"/>
  <rect x="144" y="80" width="8" height="8" fill="#E0B374"/>
  <rect x="152" y="80" width="8" height="8" fill="#BC8746"/>
  <rect x="16" y="88" width="8" height="8" fill="#BC8746"/>
  <rect x="24" y="88" width="8" height="8" fill="#E0B374"/>
  <rect x="32" y="88" width="40" height="8" fill="#FCF6EA"/>
  <rect x="72" y="88" width="8" height="8" fill="#EFDFC2"/>
  <rect x="80" y="88" width="48" height="8" fill="#FCF6EA"/>
  <rect x="128" y="88" width="16" height="8" fill="#EFDFC2"/>
  <rect x="144" y="88" width="8" height="8" fill="#E0B374"/>
  <rect x="152" y="88" width="8" height="8" fill="#BC8746"/>
  <rect x="16" y="96" width="8" height="8" fill="#BC8746"/>
  <rect x="24" y="96" width="8" height="8" fill="#E0B374"/>
  <rect x="32" y="96" width="16" height="8" fill="#FCF6EA"/>
  <rect x="48" y="96" width="8" height="8" fill="#EFDFC2"/>
  <rect x="56" y="96" width="72" height="8" fill="#FCF6EA"/>
  <rect x="128" y="96" width="16" height="8" fill="#EFDFC2"/>
  <rect x="144" y="96" width="8" height="8" fill="#E0B374"/>
  <rect x="152" y="96" width="8" height="8" fill="#BC8746"/>
  <rect x="16" y="104" width="8" height="8" fill="#BC8746"/>
  <rect x="24" y="104" width="8" height="8" fill="#E0B374"/>
  <rect x="32" y="104" width="64" height="8" fill="#FCF6EA"/>
  <rect x="96" y="104" width="8" height="8" fill="#EFDFC2"/>
  <rect x="104" y="104" width="24" height="8" fill="#FCF6EA"/>
  <rect x="128" y="104" width="16" height="8" fill="#EFDFC2"/>
  <rect x="144" y="104" width="8" height="8" fill="#E0B374"/>
  <rect x="152" y="104" width="8" height="8" fill="#BC8746"/>
  <rect x="16" y="112" width="8" height="8" fill="#BC8746"/>
  <rect x="24" y="112" width="8" height="8" fill="#E0B374"/>
  <rect x="32" y="112" width="32" height="8" fill="#FCF6EA"/>
  <rect x="64" y="112" width="8" height="8" fill="#EFDFC2"/>
  <rect x="72" y="112" width="56" height="8" fill="#FCF6EA"/>
  <rect x="128" y="112" width="16" height="8" fill="#EFDFC2"/>
  <rect x="144" y="112" width="8" height="8" fill="#E0B374"/>
  <rect x="152" y="112" width="8" height="8" fill="#BC8746"/>
  <rect x="16" y="120" width="8" height="8" fill="#BC8746"/>
  <rect x="24" y="120" width="8" height="8" fill="#E0B374"/>
  <rect x="32" y="120" width="96" height="8" fill="#FCF6EA"/>
  <rect x="128" y="120" width="16" height="8" fill="#EFDFC2"/>
  <rect x="144" y="120" width="8" height="8" fill="#E0B374"/>
  <rect x="152" y="120" width="8" height="8" fill="#BC8746"/>
  <rect x="16" y="128" width="8" height="8" fill="#BC8746"/>
  <rect x="24" y="128" width="8" height="8" fill="#E0B374"/>
  <rect x="32" y="128" width="96" height="8" fill="#FCF6EA"/>
  <rect x="128" y="128" width="16" height="8" fill="#EFDFC2"/>
  <rect x="144" y="128" width="8" height="8" fill="#E0B374"/>
  <rect x="152" y="128" width="8" height="8" fill="#BC8746"/>
  <rect x="16" y="136" width="8" height="8" fill="#BC8746"/>
  <rect x="24" y="136" width="128" height="8" fill="#E0B374"/>
  <rect x="152" y="136" width="8" height="8" fill="#BC8746"/>
  <rect x="24" y="144" width="128" height="8" fill="#BC8746"/>
</svg>
