<svg xmlns="http://www.w3.org/2000/svg" viewBox="0 0 128 224" shape-rendering="crispEdges" role="img" aria-label="Microphone mark">
  <rect x="40" y="0" width="40" height="8" fill="#2E2A27"/>
  <rect x="32" y="8" width="8" height="8" fill="#2E2A27"/>
  <rect x="40" y="8" width="40" height="8" fill="#C7C1B8"/>
  <rect x="80" y="8" width="8" height="8" fill="#2E2A27"/>
  <rect x="24" y="16" width="8" height="8" fill="#2E2A27"/>
  <rect x="32" y="16" width="56" height="8" fill="#C7C1B8"/>
  <rect x="88" y="16" width="8" height="8" fill="#2E2A27"/>
  <rect x="16" y="24" width="8" height="8" fill="#2E2A27"/>
  <rect x="24" y="24" width="72" height="8" fill="#908A81"/>
  <rect x="96" y="24" width="8" height="8" fill="#2E2A27"/>
  <rect x="8" y="32" width="8" height="8" fill="#2E2A27"/>
  <rect x="16" y="32" width="88" height="8" fill="#C7C1B8"/>
  <rect x="104" y="32" width="8" height="8" fill="#2E2A27"/>
  <rect x="8" y="40" width="8" height="8" fill="#2E2A27"/>
  <rect x="16" y="40" width="88" height="8" fill="#908A81"/>
  <rect x="104" y="40" width="8" height="8" fill="#2E2A27"/>
  <rect x="8" y="48" width="8" height="8" fill="#2E2A27"/>
  <rect x="16" y="48" width="88" height="8" fill="#C7C1B8"/>
  <rect x="104" y="48" width="8" height="8" fill="#2E2A27"/>
  <rect x="8" y="56" width="8" height="8" fill="#2E2A27"/>
  <rect x="16" y="56" width="88" height="8" fill="#908A81"/>
  <rect x="104" y="56" width="8" height="8" fill="#2E2A27"/>
  <rect x="16" y="64" width="8" height="8" fill="#2E2A27"/>
  <rect x="24" y="64" width="72" height="8" fill="#C7C1B8"/>
  <rect x="96" y="64" width="8" height="8" fill="#2E2A27"/>
  <rect x="24" y="72" width="8" height="8" fill="#2E2A27"/>
  <rect x="32" y="72" width="56" height="8" fill="#C7C1B8"/>
  <rect x="88" y="72" width="8" height="8" fill="#2E2A27"/>
  <rect x="24" y="80" width="8" height="8" fill="#2E2A27"/>
  <rect x="32" y="80" width="56" height="8" fill="#C16A43"/>
  <rect x="88" y="80" width="8" height="8" fill="#2E2A27"/>
  <rect x="32" y="88" width="8" height="8" fill="#2E2A27"/>
  <rect x="40" y="88" width="8" height="8" fill="#6E6860"/>
  <rect x="48" y="88" width="32" height="8" fill="#45413B"/>
  <rect x="80" y="88" width="8" height="8" fill="#2E2A27"/>
  <rect x="32" y="96" width="8" height="8" fill="#2E2A27"/>
  <rect x="40" y="96" width="8" height="8" fill="#6E6860"/>
  <rect x="48" y="96" width="32" height="8" fill="#45413B"/>
  <rect x="80" y="96" width="8" height="8" fill="#2E2A27"/>
  <rect x="32" y="104" width="8" height="8" fill="#2E2A27"/>
  <rect x="40" y="104" width="8" height="8" fill="#6E6860"/>
  <rect x="48" y="104" width="32" height="8" fill="#45413B"/>
  <rect x="80" y="104" width="8" height="8" fill="#2E2A27"/>
  <rect x="32" y="112" width="8" height="8" fill="#2E2A27"/>
  <rect x="40" y="112" width="8" height="8" fill="#6E6860"/>
  <rect x="48" y="112" width="32" height="8" fill="#45413B"/>
  <rect x="80" y="112" width="8" height="8" fill="#2E2A27"/>
  <rect x="32" y="120" width="8" height="8" fill="#2E2A27"/>
  <rect x="40" y="120" width="8" height="8" fill="#6E6860"/>
  <rect x="48" y="120" width="32" height="8" fill="#45413B"/>
  <rect x="80" y="120" width="8" height="8" fill="#2E2A27"/>
  <rect x="32" y="128" width="8" height="8" fill="#2E2A27"/>
  <rect x="40" y="128" width="8" height="8" fill="#6E6860"/>
  <rect x="48" y="128" width="32" height="8" fill="#45413B"/>
  <rect x="80" y="128" width="8" height="8" fill="#2E2A27"/>
  <rect x="32" y="136" width="8" height="8" fill="#2E2A27"/>
  <rect x="40" y="136" width="8" height="8" fill="#6E6860"/>
  <rect x="48" y="136" width="32" height="8" fill="#45413B"/>
  <rect x="80" y="136" width="8" height="8" fill="#2E2A27"/>
  <rect x="32" y="144" width="8" height="8" fill="#2E2A27"/>
  <rect x="40" y="144" width="8" height="8" fill="#6E6860"/>
  <rect x="48" y="144" width="32" height="8" fill="#45413B"/>
  <rect x="80" y="144" width="8" height="8" fill="#2E2A27"/>
  <rect x="32" y="152" width="8" height="8" fill="#2E2A27"/>
  <rect x="40" y="152" width="8" height="8" fill="#6E6860"/>
  <rect x="48" y="152" width="32" height="8" fill="#45413B"/>
  <rect x="80" y="152" width="8" height="8" fill="#2E2A27"/>
  <rect x="32" y="160" width="8" height="8" fill="#2E2A27"/>
  <rect x="40" y="160" width="8" height="8" fill="#6E6860"/>
  <rect x="48" y="160" width="32" height="8" fill="#45413B"/>
  <rect x="80" y="160" width="8" height="8" fill="#2E2A27"/>
  <rect x="32" y="168" width="8" height="8" fill="#2E2A27"/>
  <rect x="40" y="168" width="8" height="8" fill="#6E6860"/>
  <rect x="48" y="168" width="32" height="8" fill="#45413B"/>
  <rect x="80" y="168" width="8" height="8" fill="#2E2A27"/>
  <rect x="32" y="176" width="8" height="8" fill="#2E2A27"/>
  <rect x="40" y="176" width="8" height="8" fill="#6E6860"/>
  <rect x="48" y="176" width="32" height="8" fill="#45413B"/>
  <rect x="80" y="176" width="8" height="8" fill="#2E2A27"/>
  <rect x="32" y="184" width="8" height="8" fill="#2E2A27"/>
  <rect x="40" y="184" width="8" height="8" fill="#6E6860"/>
  <rect x="48" y="184" width="32" height="8" fill="#45413B"/>
  <rect x="80" y="184" width="8" height="8" fill="#2E2A27"/>
  <rect x="32" y="192" width="8" height="8" fill="#2E2A27"/>
  <rect x="40" y="192" width="8" height="8" fill="#6E6860"/>
  <rect x="48" y="192" width="32" height="8" fill="#45413B"/>
  <rect x="80" y="192" width="8" height="8" fill="#2E2A27"/>
  <rect x="24" y="200" width="8" height="8" fill="#2E2A27"/>
  <rect x="32" y="200" width="56" height="8" fill="#45413B"/>
  <rect x="88" y="200" width="8" height="8" fill="#2E2A27"/>
  <rect x="32" y="208" width="56" height="8" fill="#2E2A27"/>
</svg>
