<svg xmlns="http://www.w3.org/2000/svg" viewBox="0 0 136 144" shape-rendering="crispEdges" role="img" aria-label="Palmetto">
  <rect x="40" y="32" width="8" height="8" fill="#6AAE5C"/>
  <rect x="64" y="32" width="8" height="8" fill="#6AAE5C"/>
  <rect x="88" y="32" width="8" height="8" fill="#6AAE5C"/>
  <rect x="48" y="40" width="8" height="8" fill="#3E7D3A"/>
  <rect x="64" y="40" width="8" height="8" fill="#3E7D3A"/>
  <rect x="80" y="40" width="8" height="8" fill="#3E7D3A"/>
  <rect x="56" y="48" width="24" height="8" fill="#3E7D3A"/>
  <rect x="32" y="56" width="8" height="8" fill="#6AAE5C"/>
  <rect x="40" y="56" width="56" height="8" fill="#3E7D3A"/>
  <rect x="96" y="56" width="8" height="8" fill="#6AAE5C"/>
  <rect x="48" y="64" width="40" height="8" fill="#3E7D3A"/>
  <rect x="40" y="72" width="8" height="8" fill="#3E7D3A"/>
  <rect x="64" y="72" width="8" height="8" fill="#8A5A30"/>
  <rect x="72" y="72" width="8" height="8" fill="#5A3A1E"/>
  <rect x="88" y="72" width="8" height="8" fill="#3E7D3A"/>
  <rect x="32" y="80" width="8" height="8" fill="#6AAE5C"/>
  <rect x="64" y="80" width="8" height="8" fill="#8A5A30"/>
  <rect x="72" y="80" width="8" height="8" fill="#5A3A1E"/>
  <rect x="96" y="80" width="8" height="8" fill="#6AAE5C"/>
  <rect x="64" y="88" width="8" height="8" fill="#8A5A30"/>
  <rect x="72" y="88" width="8" height="8" fill="#5A3A1E"/>
  <rect x="64" y="96" width="8" height="8" fill="#8A5A30"/>
  <rect x="72" y="96" width="8" height="8" fill="#5A3A1E"/>
  <rect x="64" y="104" width="8" height="8" fill="#8A5A30"/>
  <rect x="72" y="104" width="8" height="8" fill="#5A3A1E"/>
  <rect x="64" y="112" width="8" height="8" fill="#8A5A30"/>
  <rect x="72" y="112" width="8" height="8" fill="#5A3A1E"/>
  <rect x="64" y="120" width="8" height="8" fill="#8A5A30"/>
  <rect x="72" y="120" width="8" height="8" fill="#5A3A1E"/>
  <rect x="56" y="128" width="16" height="8" fill="#8A5A30"/>
  <rect x="72" y="128" width="16" height="8" fill="#5A3A1E"/>
</svg>
