<svg xmlns="http://www.w3.org/2000/svg" viewBox="0 0 120 224" shape-rendering="crispEdges" role="img" aria-label="Light beam mark">
  <rect x="32" y="0" width="8" height="8" fill="#5A2D81"/>
  <rect x="40" y="0" width="8" height="8" fill="#8E5FC0"/>
  <rect x="48" y="0" width="24" height="8" fill="#ECDCFB"/>
  <rect x="72" y="0" width="8" height="8" fill="#8E5FC0"/>
  <rect x="80" y="0" width="8" height="8" fill="#5A2D81"/>
  <rect x="32" y="8" width="8" height="8" fill="#5A2D81"/>
  <rect x="40" y="8" width="8" height="8" fill="#8E5FC0"/>
  <rect x="48" y="8" width="24" height="8" fill="#ECDCFB"/>
  <rect x="72" y="8" width="8" height="8" fill="#8E5FC0"/>
  <rect x="80" y="8" width="8" height="8" fill="#5A2D81"/>
  <rect x="32" y="16" width="8" height="8" fill="#5A2D81"/>
  <rect x="40" y="16" width="8" height="8" fill="#8E5FC0"/>
  <rect x="48" y="16" width="24" height="8" fill="#ECDCFB"/>
  <rect x="72" y="16" width="8" height="8" fill="#8E5FC0"/>
  <rect x="80" y="16" width="8" height="8" fill="#5A2D81"/>
  <rect x="96" y="16" width="8" height="8" fill="#C7A8E8"/>
  <rect x="32" y="24" width="8" height="8" fill="#5A2D81"/>
  <rect x="40" y="24" width="8" height="8" fill="#8E5FC0"/>
  <rect x="48" y="24" width="24" height="8" fill="#ECDCFB"/>
  <rect x="72" y="24" width="8" height="8" fill="#8E5FC0"/>
  <rect x="80" y="24" width="8" height="8" fill="#5A2D81"/>
  <rect x="16" y="32" width="8" height="8" fill="#C7A8E8"/>
  <rect x="32" y="32" width="8" height="8" fill="#5A2D81"/>
  <rect x="40" y="32" width="8" height="8" fill="#8E5FC0"/>
  <rect x="48" y="32" width="24" height="8" fill="#ECDCFB"/>
  <rect x="72" y="32" width="8" height="8" fill="#8E5FC0"/>
  <rect x="80" y="32" width="8" height="8" fill="#5A2D81"/>
  <rect x="32" y="40" width="8" height="8" fill="#5A2D81"/>
  <rect x="40" y="40" width="8" height="8" fill="#8E5FC0"/>
  <rect x="48" y="40" width="24" height="8" fill="#ECDCFB"/>
  <rect x="72" y="40" width="8" height="8" fill="#8E5FC0"/>
  <rect x="80" y="40" width="8" height="8" fill="#5A2D81"/>
  <rect x="32" y="48" width="8" height="8" fill="#5A2D81"/>
  <rect x="40" y="48" width="8" height="8" fill="#8E5FC0"/>
  <rect x="48" y="48" width="24" height="8" fill="#ECDCFB"/>
  <rect x="72" y="48" width="8" height="8" fill="#8E5FC0"/>
  <rect x="80" y="48" width="8" height="8" fill="#5A2D81"/>
  <rect x="32" y="56" width="8" height="8" fill="#5A2D81"/>
  <rect x="40" y="56" width="8" height="8" fill="#8E5FC0"/>
  <rect x="48" y="56" width="24" height="8" fill="#ECDCFB"/>
  <rect x="72" y="56" width="8" height="8" fill="#8E5FC0"/>
  <rect x="80" y="56" width="8" height="8" fill="#5A2D81"/>
  <rect x="32" y="64" width="8" height="8" fill="#5A2D81"/>
  <rect x="40" y="64" width="8" height="8" fill="#8E5FC0"/>
  <rect x="48" y="64" width="24" height="8" fill="#ECDCFB"/>
  <rect x="72" y="64" width="8" height="8" fill="#8E5FC0"/>
  <rect x="80" y="64" width="8" height="8" fill="#5A2D81"/>
  <rect x="96" y="64" width="8" height="8" fill="#C7A8E8"/>
  <rect x="32" y="72" width="8" height="8" fill="#5A2D81"/>
  <rect x="40" y="72" width="8" height="8" fill="#8E5FC0"/>
  <rect x="48" y="72" width="24" height="8" fill="#ECDCFB"/>
  <rect x="72" y="72" width="8" height="8" fill="#8E5FC0"/>
  <rect x="80" y="72" width="8" height="8" fill="#5A2D81"/>
  <rect x="32" y="80" width="8" height="8" fill="#5A2D81"/>
  <rect x="40" y="80" width="8" height="8" fill="#8E5FC0"/>
  <rect x="48" y="80" width="24" height="8" fill="#ECDCFB"/>
  <rect x="72" y="80" width="8" height="8" fill="#8E5FC0"/>
  <rect x="80" y="80" width="8" height="8" fill="#5A2D81"/>
  <rect x="32" y="88" width="8" height="8" fill="#5A2D81"/>
  <rect x="40" y="88" width="8" height="8" fill="#8E5FC0"/>
  <rect x="48" y="88" width="24" height="8" fill="#ECDCFB"/>
  <rect x="72" y="88" width="8" height="8" fill="#8E5FC0"/>
  <rect x="80" y="88" width="8" height="8" fill="#5A2D81"/>
  <rect x="32" y="96" width="8" height="8" fill="#5A2D81"/>
  <rect x="40" y="96" width="8" height="8" fill="#8E5FC0"/>
  <rect x="48" y="96" width="24" height="8" fill="#ECDCFB"/>
  <rect x="72" y="96" width="8" height="8" fill="#8E5FC0"/>
  <rect x="80" y="96" width="8" height="8" fill="#5A2D81"/>
  <rect x="16" y="104" width="8" height="8" fill="#C7A8E8"/>
  <rect x="32" y="104" width="8" height="8" fill="#5A2D81"/>
  <rect x="40" y="104" width="8" height="8" fill="#8E5FC0"/>
  <rect x="48" y="104" width="24" height="8" fill="#ECDCFB"/>
  <rect x="72" y="104" width="8" height="8" fill="#8E5FC0"/>
  <rect x="80" y="104" width="8" height="8" fill="#5A2D81"/>
  <rect x="32" y="112" width="8" height="8" fill="#5A2D81"/>
  <rect x="40" y="112" width="8" height="8" fill="#8E5FC0"/>
  <rect x="48" y="112" width="24" height="8" fill="#ECDCFB"/>
  <rect x="72" y="112" width="8" height="8" fill="#8E5FC0"/>
  <rect x="80" y="112" width="8" height="8" fill="#5A2D81"/>
  <rect x="32" y="120" width="8" height="8" fill="#5A2D81"/>
  <rect x="40" y="120" width="8" height="8" fill="#8E5FC0"/>
  <rect x="48" y="120" width="24" height="8" fill="#ECDCFB"/>
  <rect x="72" y="120" width="8" height="8" fill="#8E5FC0"/>
  <rect x="80" y="120" width="8" height="8" fill="#5A2D81"/>
  <rect x="32" y="128" width="8" height="8" fill="#5A2D81"/>
  <rect x="40" y="128" width="8" height="8" fill="#8E5FC0"/>
  <rect x="48" y="128" width="24" height="8" fill="#ECDCFB"/>
  <rect x="72" y="128" width="8" height="8" fill="#8E5FC0"/>
  <rect x="80" y="128" width="8" height="8" fill="#5A2D81"/>
  <rect x="32" y="136" width="8" height="8" fill="#5A2D81"/>
  <rect x="40" y="136" width="8" height="8" fill="#8E5FC0"/>
  <rect x="48" y="136" width="24" height="8" fill="#ECDCFB"/>
  <rect x="72" y="136" width="8" height="8" fill="#8E5FC0"/>
  <rect x="80" y="136" width="8" height="8" fill="#5A2D81"/>
  <rect x="96" y="136" width="8" height="8" fill="#C7A8E8"/>
  <rect x="32" y="144" width="8" height="8" fill="#5A2D81"/>
  <rect x="40" y="144" width="8" height="8" fill="#8E5FC0"/>
  <rect x="48" y="144" width="24" height="8" fill="#ECDCFB"/>
  <rect x="72" y="144" width="8" height="8" fill="#8E5FC0"/>
  <rect x="80" y="144" width="8" height="8" fill="#5A2D81"/>
  <rect x="32" y="152" width="8" height="8" fill="#5A2D81"/>
  <rect x="40" y="152" width="8" height="8" fill="#8E5FC0"/>
  <rect x="48" y="152" width="24" height="8" fill="#ECDCFB"/>
  <rect x="72" y="152" width="8" height="8" fill="#8E5FC0"/>
  <rect x="80" y="152" width="8" height="8" fill="#5A2D81"/>
  <rect x="32" y="160" width="8" height="8" fill="#5A2D81"/>
  <rect x="40" y="160" width="8" height="8" fill="#8E5FC0"/>
  <rect x="48" y="160" width="24" height="8" fill="#ECDCFB"/>
  <rect x="72" y="160" width="8" height="8" fill="#8E5FC0"/>
  <rect x="80" y="160" width="8" height="8" fill="#5A2D81"/>
  <rect x="16" y="168" width="8" height="8" fill="#C7A8E8"/>
  <rect x="32" y="168" width="8" height="8" fill="#5A2D81"/>
  <rect x="40" y="168" width="8" height="8" fill="#8E5FC0"/>
  <rect x="48" y="168" width="24" height="8" fill="#ECDCFB"/>
  <rect x="72" y="168" width="8" height="8" fill="#8E5FC0"/>
  <rect x="80" y="168" width="8" height="8" fill="#5A2D81"/>
  <rect x="32" y="176" width="8" height="8" fill="#5A2D81"/>
  <rect x="40" y="176" width="8" height="8" fill="#8E5FC0"/>
  <rect x="48" y="176" width="24" height="8" fill="#ECDCFB"/>
  <rect x="72" y="176" width="8" height="8" fill="#8E5FC0"/>
  <rect x="80" y="176" width="8" height="8" fill="#5A2D81"/>
  <rect x="32" y="184" width="8" height="8" fill="#5A2D81"/>
  <rect x="40" y="184" width="8" height="8" fill="#8E5FC0"/>
  <rect x="48" y="184" width="24" height="8" fill="#ECDCFB"/>
  <rect x="72" y="184" width="8" height="8" fill="#8E5FC0"/>
  <rect x="80" y="184" width="8" height="8" fill="#5A2D81"/>
  <rect x="32" y="192" width="16" height="8" fill="#8E5FC0"/>
  <rect x="48" y="192" width="24" height="8" fill="#ECDCFB"/>
  <rect x="72" y="192" width="16" height="8" fill="#8E5FC0"/>
  <rect x="24" y="200" width="72" height="8" fill="#5A2D81"/>
  <rect x="16" y="208" width="88" height="8" fill="#3A2456"/>
</svg>
